<?xml version="1.0" standalone="no"?>
<!DOCTYPE svg PUBLIC "-//W3C//DTD SVG 20010904//EN"
 "http://www.w3.org/TR/2001/REC-SVG-20010904/DTD/svg10.dtd">
<svg version="1.0" xmlns="http://www.w3.org/2000/svg"
 width="350.000000pt" height="350.000000pt" viewBox="0 0 350.000000 350.000000"
 preserveAspectRatio="xMidYMid meet">
<metadata>
Created by potrace 1.14, written by Peter Selinger 2001-2017
</metadata>
<g transform="translate(0.000000,350.000000) scale(0.100000,-0.100000)"
fill="#000000" stroke="none">
<path d="M1928 2908 c-10 -10 -15 -18 -10 -18 4 0 -1 -5 -10 -11 -10 -5 -18
-17 -18 -24 0 -8 -5 -15 -10 -15 -5 0 -9 -3 -8 -7 3 -14 -21 -61 -32 -65 -7
-2 -13 -16 -13 -31 -1 -15 -5 -27 -9 -27 -5 0 -8 -7 -8 -15 0 -8 -5 -15 -11
-15 -5 0 -8 -4 -5 -8 3 -5 -1 -20 -9 -35 -7 -14 -11 -28 -7 -31 3 -3 0 -6 -7
-6 -7 0 -9 -4 -6 -10 3 -5 -3 -20 -15 -32 -12 -13 -16 -24 -10 -28 10 -6 4
-16 -40 -67 -8 -10 -7 -13 2 -13 10 0 10 -2 -1 -9 -8 -5 -10 -14 -6 -21 5 -9
4 -11 -3 -6 -7 4 -14 -3 -18 -19 -3 -14 -10 -25 -16 -25 -5 0 -6 -4 -3 -10 3
-5 1 -10 -5 -10 -6 0 -8 -4 -5 -10 3 -5 1 -10 -6 -10 -7 0 -9 -3 -6 -7 4 -3 2
-12 -4 -20 -6 -7 -9 -13 -5 -13 3 0 -6 -22 -20 -50 -14 -27 -30 -50 -35 -50
-6 0 -9 -6 -8 -12 3 -24 -1 -37 -16 -51 -8 -8 -16 -27 -19 -43 -3 -15 -11 -31
-18 -36 -10 -6 -10 -8 1 -8 12 0 12 -2 -1 -12 -8 -7 -21 -29 -28 -48 -8 -19
-16 -37 -20 -40 -13 -12 -40 -79 -42 -107 -1 -7 -5 -13 -10 -13 -4 0 -8 -7 -8
-15 0 -8 -5 -15 -11 -15 -6 0 -9 -7 -5 -15 3 -8 1 -15 -4 -15 -6 0 -10 -9 -10
-20 0 -10 -7 -23 -15 -27 -8 -5 -16 -19 -18 -32 -2 -12 -8 -26 -13 -29 -5 -4
-11 -16 -12 -27 -2 -11 -8 -24 -13 -30 -17 -17 -9 -45 20 -75 15 -17 33 -30
40 -30 6 0 11 -5 11 -12 0 -6 3 -8 7 -5 3 4 13 1 21 -6 13 -10 14 -9 7 2 -9
15 75 -27 87 -44 5 -6 8 -6 8 0 0 5 5 4 12 -3 7 -7 20 -12 30 -12 10 0 18 -4
18 -10 0 -5 7 -7 15 -4 8 4 15 1 15 -5 0 -6 7 -11 15 -11 8 0 15 -6 15 -12 0
-10 3 -9 9 1 7 11 13 9 29 -7 11 -11 23 -18 26 -14 3 3 6 0 6 -6 0 -7 9 -12
21 -12 13 0 18 -4 13 -12 -4 -7 -3 -8 5 -4 6 4 24 0 39 -10 15 -10 30 -17 35
-16 4 1 7 -2 7 -7 0 -5 10 -11 22 -14 16 -5 32 5 65 39 24 24 41 44 38 44 -8
0 56 124 66 128 5 2 9 12 9 23 0 11 7 22 15 25 8 4 13 10 10 14 -3 5 -1 11 5
15 6 4 8 10 5 15 -3 5 2 16 11 24 10 10 11 16 4 16 -14 0 13 48 38 67 13 11
13 13 1 13 -12 0 -12 2 1 10 13 8 13 10 1 10 -12 0 -12 2 2 13 9 6 17 19 19
27 2 8 8 20 15 28 7 7 10 19 7 27 -4 8 -1 15 5 15 6 0 11 7 11 16 0 9 10 30
22 47 13 18 22 33 20 35 -7 7 0 32 8 27 6 -3 10 -1 10 4 0 23 2 27 22 48 11
12 17 26 13 32 -3 6 -1 11 4 11 6 0 11 7 11 15 0 8 5 15 11 15 5 0 7 5 3 11
-3 6 -1 14 5 18 6 4 14 21 17 36 3 16 9 34 15 41 5 6 6 14 2 17 -3 4 -1 7 6 7
7 0 9 5 6 10 -3 6 -1 10 4 10 6 0 11 7 11 15 0 8 9 31 20 50 11 20 18 40 15
46 -4 5 1 9 9 9 10 0 13 7 11 20 -2 11 0 18 6 15 8 -5 11 7 8 31 0 3 8 12 18
20 10 7 15 14 10 14 -4 0 3 19 15 43 12 23 23 49 24 57 2 8 10 20 19 26 9 7
16 15 16 18 -1 3 0 9 0 14 5 28 2 38 -17 57 -39 39 -76 65 -85 59 -5 -3 -9 0
-9 5 0 6 -11 11 -25 11 -14 0 -25 4 -25 9 0 10 -79 51 -98 51 -7 0 -12 5 -12
10 0 6 -9 10 -20 10 -11 0 -20 5 -20 11 0 6 -7 8 -15 5 -9 -3 -18 1 -22 10 -4
10 -8 12 -12 5 -5 -7 -15 -4 -29 9 -12 11 -25 20 -29 19 -17 -2 -53 14 -53 24
0 6 -3 8 -6 4 -3 -3 -21 3 -40 13 -22 13 -35 16 -40 9 -4 -7 -9 -7 -13 -2 -3
5 -14 1 -23 -9z"/>
<path d="M803 2380 c-13 -5 -23 -14 -23 -19 0 -5 -11 -12 -24 -15 -14 -3 -31
-12 -38 -19 -14 -13 -55 -37 -98 -59 -14 -7 -27 -15 -30 -18 -13 -14 -60 -40
-60 -33 0 5 -5 0 -11 -10 -6 -9 -14 -15 -20 -12 -5 4 -9 0 -9 -7 0 -7 -23 -24
-51 -38 -27 -13 -59 -32 -69 -42 -11 -10 -26 -18 -35 -18 -8 0 -23 -8 -33 -18
-10 -10 -32 -24 -50 -31 -18 -7 -32 -17 -32 -21 0 -4 -21 -18 -47 -31 -58 -29
-63 -33 -121 -87 -46 -43 -47 -44 -50 -118 -3 -55 -1 -74 9 -74 7 0 10 -3 7
-6 -8 -7 65 -74 81 -74 6 0 11 -5 11 -10 0 -6 11 -15 25 -20 22 -8 80 -45 95
-60 12 -12 70 -40 70 -34 0 4 9 -3 19 -15 11 -12 21 -22 23 -21 4 2 62 -23 68
-30 8 -9 54 -37 63 -38 4 -1 14 -7 22 -14 30 -27 41 -34 73 -47 17 -7 32 -17
32 -22 0 -5 7 -9 15 -9 7 0 18 -6 22 -14 4 -7 22 -21 38 -30 17 -9 44 -25 60
-36 17 -11 40 -25 53 -31 12 -7 22 -16 22 -20 0 -5 11 -3 25 3 14 6 25 16 25
22 0 6 9 17 20 24 11 7 20 18 20 26 0 8 7 16 15 20 8 3 15 12 15 19 0 8 7 20
15 27 8 7 12 16 9 21 -3 5 0 9 5 9 58 0 -103 145 -163 148 -5 0 -12 6 -17 13
-4 7 -14 14 -23 15 -8 1 -25 11 -37 23 -12 11 -26 18 -31 15 -4 -3 -11 2 -14
10 -3 9 -12 16 -19 16 -7 0 -19 7 -26 17 -8 9 -29 22 -46 30 -18 7 -33 18 -33
24 0 6 -7 9 -15 5 -8 -3 -15 -2 -15 2 0 4 -17 18 -38 32 -20 14 -40 29 -43 33
-3 5 -10 9 -15 9 -5 0 -25 11 -44 24 -23 16 -29 24 -17 24 9 0 17 5 17 11 0 5
4 8 9 4 5 -3 15 1 23 8 19 19 100 73 121 80 9 4 17 11 17 17 0 6 4 9 9 6 4 -3
19 6 31 19 13 14 29 25 35 25 6 0 21 9 33 21 12 11 26 18 31 15 5 -3 11 1 15
9 3 8 12 15 21 15 8 0 15 4 15 9 0 5 13 14 30 21 16 7 27 16 24 21 -3 5 4 9
15 9 34 0 141 79 154 113 9 25 -114 202 -136 196 -1 0 -12 -4 -24 -9z"/>
<path d="M2683 2383 c-7 -2 -13 -9 -13 -14 0 -5 -8 -18 -17 -28 -29 -32 -43
-50 -43 -55 0 -3 -13 -25 -29 -48 l-29 -43 38 -35 c58 -52 70 -62 70 -54 0 4
11 -3 25 -16 14 -13 25 -19 25 -14 0 5 5 1 11 -8 5 -10 17 -18 25 -18 8 0 43
-20 78 -45 36 -25 70 -45 75 -45 6 0 11 -4 11 -10 0 -5 7 -10 15 -10 7 0 18
-6 22 -12 10 -17 49 -38 67 -38 8 0 23 -11 34 -25 11 -13 22 -22 24 -19 3 2
20 -9 38 -26 18 -16 38 -30 46 -30 8 0 11 -6 8 -15 -4 -8 -10 -13 -14 -10 -4
3 -13 -2 -20 -10 -7 -8 -19 -15 -26 -15 -8 0 -14 -4 -14 -10 0 -5 -6 -10 -14
-10 -7 0 -19 -7 -26 -15 -7 -9 -15 -13 -18 -11 -2 3 -10 0 -18 -7 -30 -27 -44
-37 -51 -39 -15 -3 -73 -40 -73 -47 0 -3 -9 -12 -21 -19 -17 -11 -20 -11 -13
0 4 7 -2 5 -13 -4 -11 -10 -25 -18 -31 -18 -6 0 -15 -6 -19 -13 -4 -7 -23 -19
-40 -26 -18 -8 -33 -17 -33 -22 0 -5 -5 -9 -12 -9 -6 0 -20 -8 -31 -17 -15
-13 -19 -14 -13 -3 4 9 2 8 -7 -2 -8 -10 -18 -18 -23 -18 -11 0 -74 -70 -74
-83 0 -22 120 -187 136 -187 6 0 70 31 104 51 14 8 29 20 33 27 4 6 14 12 21
12 7 0 37 18 66 40 29 22 60 40 67 40 7 0 13 5 13 10 0 6 7 10 15 10 8 0 15 4
15 9 0 5 8 11 18 14 26 9 75 40 94 61 10 10 18 16 18 11 0 -4 7 -2 15 5 8 7
15 9 15 4 0 -5 7 2 16 14 8 12 20 20 25 17 5 -4 12 0 15 8 5 14 39 31 57 28 4
-1 7 4 7 9 0 11 49 35 63 31 5 -1 6 2 3 7 -2 4 12 17 32 28 20 10 49 31 65 46
26 26 27 30 27 131 0 112 -3 120 -62 145 -16 6 -28 16 -28 22 0 5 -6 10 -14
10 -7 0 -19 7 -26 15 -7 8 -16 12 -21 9 -5 -3 -9 -1 -9 4 0 5 -21 20 -47 33
-27 13 -50 27 -53 30 -9 10 -55 33 -62 31 -5 -1 -8 3 -8 9 0 5 -4 7 -10 4 -5
-3 -10 -3 -10 2 0 4 -23 21 -50 38 -28 16 -50 32 -50 35 0 4 -16 12 -35 20
-19 8 -35 17 -35 22 0 4 -6 8 -13 8 -8 0 -22 9 -32 20 -10 11 -23 20 -30 20
-11 0 -25 10 -72 50 -7 6 -13 8 -13 6 0 -3 -25 10 -55 29 -55 36 -60 37 -82
28z"/>
<path d="M1235 1393 c-12 -18 -18 -44 -17 -77 3 -90 13 -220 19 -246 3 -14 6
-43 7 -65 1 -22 5 -45 8 -51 4 -6 7 -32 6 -59 0 -41 4 -52 30 -76 32 -30 52
-37 52 -19 0 6 3 9 8 8 12 -3 72 32 72 42 0 6 5 10 11 10 6 0 43 21 81 48 38
26 78 51 89 57 10 5 19 13 19 18 0 4 5 5 10 2 6 -3 10 -2 10 4 0 6 15 17 33
25 17 9 56 39 85 66 l54 50 -35 35 c-19 19 -42 35 -51 35 -9 0 -16 4 -16 9 0
5 -17 12 -37 16 -20 4 -48 15 -61 26 -14 10 -32 19 -41 19 -9 0 -25 6 -36 13
-11 7 -45 24 -75 36 -30 13 -80 38 -111 56 -83 49 -93 50 -114 18z"/>
</g>
</svg>
