<?xml version="1.0" standalone="no"?>
<!DOCTYPE svg PUBLIC "-//W3C//DTD SVG 20010904//EN"
 "http://www.w3.org/TR/2001/REC-SVG-20010904/DTD/svg10.dtd">
<svg version="1.0" xmlns="http://www.w3.org/2000/svg"
 width="250.000000pt" height="250.000000pt" viewBox="0 0 250.000000 250.000000"
 preserveAspectRatio="xMidYMid meet">
<metadata>
Created by potrace 1.14, written by Peter Selinger 2001-2017
</metadata>
<g transform="translate(0.000000,250.000000) scale(0.100000,-0.100000)"
fill="#000000" stroke="none">
<path d="M1356 2038 c-8 -13 -27 -50 -41 -83 -15 -33 -47 -103 -72 -155 -187
-397 -313 -670 -313 -680 0 -6 39 -30 88 -52 48 -22 130 -61 182 -85 60 -28
100 -42 108 -36 11 6 139 273 306 638 8 17 42 88 75 159 34 70 58 132 55 138
-3 5 -43 27 -88 48 -44 21 -125 58 -180 84 -54 25 -100 46 -102 46 -2 0 -10
-10 -18 -22z"/>
<path d="M390 1574 c-102 -63 -209 -129 -239 -147 -29 -18 -72 -46 -95 -62
-37 -28 -41 -36 -44 -79 -2 -35 2 -53 14 -67 9 -10 87 -63 173 -116 86 -53
205 -127 264 -165 60 -37 111 -68 113 -68 11 0 76 111 71 123 -3 7 -58 46
-123 86 -231 143 -314 196 -314 201 0 3 98 65 216 139 119 74 218 140 221 147
4 11 -61 124 -70 124 -1 0 -85 -52 -187 -116z"/>
<path d="M1856 1634 c-21 -31 -35 -61 -33 -68 3 -7 102 -73 221 -147 118 -74
216 -136 216 -139 0 -5 -106 -73 -333 -212 -50 -31 -96 -63 -101 -71 -6 -10 2
-31 28 -71 21 -31 41 -56 44 -55 4 0 131 78 282 173 l275 172 3 61 3 61 -72
47 c-39 25 -95 60 -123 76 -28 16 -122 75 -209 129 -88 55 -160 100 -162 100
-1 0 -19 -25 -39 -56z"/>
<path d="M874 989 c-12 -19 24 -369 40 -386 8 -9 49 13 170 95 88 59 159 112
159 117 0 12 -27 26 -187 101 -66 31 -132 62 -147 70 -20 10 -30 11 -35 3z"/>
</g>
</svg>
