<?xml version="1.0" standalone="no"?>
<!DOCTYPE svg PUBLIC "-//W3C//DTD SVG 20010904//EN"
 "http://www.w3.org/TR/2001/REC-SVG-20010904/DTD/svg10.dtd">
<svg version="1.0" xmlns="http://www.w3.org/2000/svg"
 width="260.000000pt" height="260.000000pt" viewBox="0 0 260.000000 260.000000"
 preserveAspectRatio="xMidYMid meet">
<metadata>
Created by potrace 1.14, written by Peter Selinger 2001-2017
</metadata>
<g transform="translate(0.000000,260.000000) scale(0.100000,-0.100000)"
fill="#000000" stroke="none">
<path d="M1420 2130 c-12 -16 -18 -30 -15 -30 4 0 -3 -12 -14 -26 -12 -15 -21
-31 -21 -37 0 -12 -67 -161 -150 -332 -32 -66 -86 -181 -120 -255 -34 -74 -77
-167 -96 -207 -19 -39 -34 -78 -34 -86 0 -21 27 -36 190 -107 80 -35 156 -71
169 -79 32 -20 52 -22 70 -8 15 13 46 77 43 90 -1 4 2 7 7 7 4 0 23 33 40 72
18 40 41 91 51 113 10 22 29 65 43 95 13 30 53 113 87 185 35 71 63 135 63
142 0 7 4 13 9 13 4 0 8 4 8 9 0 5 22 56 48 112 27 57 49 108 49 113 1 5 7 13
15 17 10 6 10 13 2 26 -13 21 -85 64 -95 57 -4 -2 -11 2 -16 9 -8 15 -276 137
-299 137 -7 0 -22 -13 -34 -30z"/>
<path d="M545 1733 c-33 -20 -62 -39 -65 -42 -3 -4 -25 -17 -50 -30 -25 -13
-61 -36 -80 -50 -19 -15 -55 -37 -80 -50 -25 -13 -64 -37 -88 -53 -24 -15 -57
-35 -75 -44 -17 -9 -46 -32 -64 -51 -29 -29 -33 -40 -33 -87 0 -62 18 -91 76
-121 21 -11 46 -27 54 -36 9 -8 45 -31 81 -51 73 -41 209 -125 293 -180 31
-21 61 -38 66 -38 6 0 10 -5 10 -11 0 -6 10 -9 23 -7 24 3 83 82 94 126 5 20
0 30 -23 49 -31 26 -119 76 -128 74 -3 0 -14 6 -23 15 -10 9 -73 51 -139 93
-67 42 -123 79 -125 82 -4 8 48 44 191 134 52 32 98 63 101 68 3 5 9 8 13 8 3
-1 35 17 71 40 47 30 65 47 65 62 0 27 -71 131 -91 134 -8 2 -41 -14 -74 -34z"/>
<path d="M1950 1709 c-22 -33 -40 -68 -40 -78 0 -21 40 -51 185 -138 61 -36
122 -73 136 -82 42 -25 129 -84 129 -87 0 -1 -38 -26 -86 -56 -47 -29 -96 -60
-109 -68 -13 -8 -70 -43 -127 -77 -118 -70 -133 -83 -125 -116 8 -31 64 -114
82 -121 18 -7 102 36 160 82 6 4 57 36 115 71 58 36 107 67 110 70 3 3 17 12
31 20 15 7 62 36 105 65 l79 51 3 80 3 81 -78 51 c-43 28 -100 63 -127 78 -27
14 -79 46 -115 69 -132 86 -265 166 -278 166 -7 0 -30 -27 -53 -61z"/>
<path d="M923 1035 c-17 -19 -16 -70 3 -255 16 -148 29 -190 56 -190 12 0 122
71 126 81 2 5 7 9 12 9 14 0 159 99 192 131 27 25 29 31 17 45 -8 10 -34 26
-59 37 -113 49 -190 85 -257 119 -40 21 -74 38 -75 38 -2 -1 -9 -7 -15 -15z"/>
</g>
</svg>
